<svg width="20" height="22" viewBox="0 0 20 22" fill="none" xmlns="http://www.w3.org/2000/svg">
    <path
        d="M5.23467 0.199997L17.6025 0.199997C18.7362 0.199997 19.6638 1.07824 19.6638 2.15164L19.6638 15.8132H17.6025V2.15164L5.23467 2.15164V0.199997ZM2.14271 4.10329L13.4799 4.10329C14.6136 4.10329 15.5412 4.98153 15.5412 6.05494L15.5412 19.7165C15.5412 20.7899 14.6136 21.6681 13.4799 21.6681L2.14271 21.6681C1.00899 21.6681 0.0814023 20.7899 0.0814023 19.7165L0.0814023 6.05494C0.0814023 4.98153 1.00899 4.10329 2.14271 4.10329ZM2.14271 19.7165L13.4799 19.7165L13.4799 6.05494L2.14271 6.05494L2.14271 19.7165Z"
        fill="#5072A6" />
</svg>